<?xml version="1.0" standalone="no"?>
<!DOCTYPE svg PUBLIC "-//W3C//DTD SVG 1.1//EN"
"http://www.w3.org/Graphics/SVG/1.1/DTD/svg11.dtd">

<svg width="542" height="170" view_box="0 0 542 170"
xmlns="http://www.w3.org/2000/svg"
xmlns:link="http://www.w3.org/1999/xlink">\n\n<desc>Généré par Mocodo 2.3.7 le Mon, 22 Jul 2019 01:19:27</desc>

<rect id="frame" x="0" y="0" width="542" height="170" fill="#f7f7f7" stroke="none" stroke-width="0"/>

<!-- Association qualify -->
<line x1="492" y1="85" x2="391" y2="85" stroke="#5aae61" stroke-width="2"/>
<text x="424" y="102.0" fill="#762a83" font-family="Verdana" font-size="12">0,N</text>
<line x1="259" y1="85" x2="391" y2="85" stroke="#5aae61" stroke-width="2"/>
<text x="304" y="102.0" fill="#762a83" font-family="Verdana" font-size="12">0,N</text>
<g id="association-qualify">
	<path d="M 405 60 a 14 14 90 0 1 14 14 V 85 h -56 V 74 a 14 14 90 0 1 14 -14" fill="#a6dba0" stroke="#a6dba0" stroke-width="0"/>
	<path d="M 419 85.0 v 11 a 14 14 90 0 1 -14 14 H 377 a 14 14 90 0 1 -14 -14 V 85.0 H 56" fill="#d9f0d3" stroke="#d9f0d3" stroke-width="0"/>
	<rect x="363" y="60" width="56" height="50" fill="none" rx="14" stroke="#5aae61" stroke-width="2"/>
	<line x1="363" y1="85" x2="419" y2="85" stroke="#5aae61" stroke-width="1"/>
	<text x="370" y="77.7" fill="#000000" font-family="Verdana" font-size="12">qualify</text>
</g>

<!-- Association contains -->
<line x1="49" y1="85" x2="154" y2="85" stroke="#5aae61" stroke-width="2"/>
<text x="94" y="102.0" fill="#762a83" font-family="Verdana" font-size="12">0,N</text>
<line x1="259" y1="85" x2="154" y2="85" stroke="#5aae61" stroke-width="2"/>
<text x="193" y="102.0" fill="#762a83" font-family="Verdana" font-size="12">1,1</text>
<g id="association-contains">
	<path d="M 173 60 a 14 14 90 0 1 14 14 V 85 h -66 V 74 a 14 14 90 0 1 14 -14" fill="#a6dba0" stroke="#a6dba0" stroke-width="0"/>
	<path d="M 187 85.0 v 11 a 14 14 90 0 1 -14 14 H 135 a 14 14 90 0 1 -14 -14 V 85.0 H 66" fill="#d9f0d3" stroke="#d9f0d3" stroke-width="0"/>
	<rect x="121" y="60" width="66" height="50" fill="none" rx="14" stroke="#5aae61" stroke-width="2"/>
	<line x1="121" y1="85" x2="187" y2="85" stroke="#5aae61" stroke-width="1"/>
	<text x="128" y="77.7" fill="#000000" font-family="Verdana" font-size="12">contains</text>
</g>

<!-- Entity list -->
<g id="entity-list">
	<g id="frame-list">
		<rect x="9" y="26" width="80" height="25" fill="#c2a5cf" stroke="#c2a5cf" stroke-width="0"/>
		<rect x="9" y="51.0" width="80" height="93" fill="#e7d4e8" stroke="#e7d4e8" stroke-width="0"/>
		<rect x="9" y="26" width="80" height="118" fill="none" stroke="#9970ab" stroke-width="2"/>
		<line x1="9" y1="51" x2="89" y2="51" stroke="#9970ab" stroke-width="1"/>
	</g>
	<text x="39" y="43.7" fill="#000000" font-family="Verdana" font-size="12">list</text>
	<text x="14" y="68.7" fill="#000000" font-family="Verdana" font-size="12">id</text>
	<line x1="14" y1="71" x2="26" y2="71" stroke="#000000" stroke-width="1"/>
	<text x="14" y="85.8" fill="#000000" font-family="Verdana" font-size="12">list_title</text>
	<text x="14" y="102.8" fill="#000000" font-family="Verdana" font-size="12">list_order</text>
	<text x="14" y="119.8" fill="#000000" font-family="Verdana" font-size="12">created_at</text>
	<text x="14" y="136.8" fill="#000000" font-family="Verdana" font-size="12">updated_at</text>
</g>

<!-- Entity card -->
<g id="entity-card">
	<g id="frame-card">
		<rect x="219" y="9" width="80" height="25" fill="#c2a5cf" stroke="#c2a5cf" stroke-width="0"/>
		<rect x="219" y="34.0" width="80" height="127" fill="#e7d4e8" stroke="#e7d4e8" stroke-width="0"/>
		<rect x="219" y="9" width="80" height="152" fill="none" stroke="#9970ab" stroke-width="2"/>
		<line x1="219" y1="34" x2="299" y2="34" stroke="#9970ab" stroke-width="1"/>
	</g>
	<text x="245" y="26.7" fill="#000000" font-family="Verdana" font-size="12">card</text>
	<text x="224" y="51.7" fill="#000000" font-family="Verdana" font-size="12">id</text>
	<line x1="224" y1="54" x2="236" y2="54" stroke="#000000" stroke-width="1"/>
	<text x="224" y="68.7" fill="#000000" font-family="Verdana" font-size="12">card_title</text>
	<text x="224" y="85.8" fill="#000000" font-family="Verdana" font-size="12">card_order</text>
	<text x="224" y="102.8" fill="#000000" font-family="Verdana" font-size="12">list_id</text>
	<text x="224" y="119.8" fill="#000000" font-family="Verdana" font-size="12">label_id</text>
	<text x="224" y="136.8" fill="#000000" font-family="Verdana" font-size="12">created_at</text>
	<text x="224" y="153.8" fill="#000000" font-family="Verdana" font-size="12">updated_at</text>
</g>

<!-- Entity label -->
<g id="entity-label">
	<g id="frame-label">
		<rect x="451" y="17" width="82" height="25" fill="#c2a5cf" stroke="#c2a5cf" stroke-width="0"/>
		<rect x="451" y="42.0" width="82" height="111" fill="#e7d4e8" stroke="#e7d4e8" stroke-width="0"/>
		<rect x="451" y="17" width="82" height="136" fill="none" stroke="#9970ab" stroke-width="2"/>
		<line x1="451" y1="42" x2="533" y2="42" stroke="#9970ab" stroke-width="1"/>
	</g>
	<text x="477" y="34.7" fill="#000000" font-family="Verdana" font-size="12">label</text>
	<text x="456" y="59.7" fill="#000000" font-family="Verdana" font-size="12">id</text>
	<line x1="456" y1="62" x2="468" y2="62" stroke="#000000" stroke-width="1"/>
	<text x="456" y="76.7" fill="#000000" font-family="Verdana" font-size="12">label_name</text>
	<text x="456" y="93.8" fill="#000000" font-family="Verdana" font-size="12">label_color</text>
	<text x="456" y="110.8" fill="#000000" font-family="Verdana" font-size="12">card_id</text>
	<text x="456" y="127.8" fill="#000000" font-family="Verdana" font-size="12">created_at</text>
	<text x="456" y="144.8" fill="#000000" font-family="Verdana" font-size="12">updated_at</text>
</g>
</svg>